<?xml version="1.0" encoding="utf-8"?>
<!-- Generator: Adobe Illustrator 17.0.0, SVG Export Plug-In . SVG Version: 6.00 Build 0)  -->
<!DOCTYPE svg PUBLIC "-//W3C//DTD SVG 1.1//EN" "http://www.w3.org/Graphics/SVG/1.1/DTD/svg11.dtd">
<svg version="1.1" id="Layer_1" xmlns="http://www.w3.org/2000/svg" xmlns:xlink="http://www.w3.org/1999/xlink" x="0px" y="0px"
	 width="640px" height="272.231px" viewBox="0 0 640 272.231" enable-background="new 0 0 640 272.231" xml:space="preserve">
<g>
	<rect y="0" fill="#8B5E3C" width="640" height="272.231"/>
	<g>
		<path fill="#FDFBE2" d="M29.318,100.432c-0.638,6.696,14.534,18.738,17.814,19.05c4.101,0.391,7.743-2.617,8.133-6.718
			c0.241-2.529-1.822-8.743-1.7-10.022c0.136-1.43,3.241-7.414,3.483-9.951c0.391-4.101-2.617-7.743-6.718-8.133
			C46.897,84.33,29.956,93.736,29.318,100.432z"/>
		
			<ellipse transform="matrix(-0.1385 -0.9904 0.9904 -0.1385 -83.3516 163.1853)" fill="#FDFBE2" cx="29.3" cy="117.846" rx="5.31" ry="7.314"/>
		
			<ellipse transform="matrix(0.0075 -1 1 0.0075 -87.1889 125.2578)" fill="#FDFBE2" cx="19.507" cy="106.552" rx="5.31" ry="7.314"/>
		
			<ellipse transform="matrix(0.2175 -0.9761 0.9761 0.2175 -74.1189 93.5317)" fill="#FDFBE2" cx="21.275" cy="92.993" rx="5.31" ry="7.314"/>
		
			<ellipse transform="matrix(0.3184 -0.948 0.948 0.3184 -57.4408 87.325)" fill="#FDFBE2" cx="32.003" cy="83.605" rx="5.31" ry="7.314"/>
	</g>
	<g>
		<path fill="#FDFBE2" d="M118.277,50.891c-2.05,6.406,10.209,21.404,13.347,22.408c3.924,1.255,8.122-0.908,9.378-4.832
			c0.774-2.42,0.083-8.93,0.474-10.154c0.438-1.368,4.746-6.554,5.523-8.981c1.255-3.924-0.908-8.122-4.832-9.378
			C138.882,38.903,120.326,44.485,118.277,50.891z"/>
		
			<ellipse transform="matrix(0.0756 -0.9971 0.9971 0.0756 38.1794 176.9883)" fill="#FDFBE2" cx="114.55" cy="67.902" rx="5.31" ry="7.314"/>
		
			<ellipse transform="matrix(0.2203 -0.9754 0.9754 0.2203 30.2899 147.4585)" fill="#FDFBE2" cx="107.387" cy="54.782" rx="5.31" ry="7.314"/>
		
			<ellipse transform="matrix(0.4204 -0.9073 0.9073 0.4204 26.8877 125.9133)" fill="#FDFBE2" cx="112.003" cy="41.91" rx="5.31" ry="7.314"/>
		
			<ellipse transform="matrix(0.513 -0.8584 0.8584 0.513 30.5619 123.9129)" fill="#FDFBE2" cx="124.484" cy="35.023" rx="5.31" ry="7.314"/>
	</g>
	<g>
		<path fill="#FDFBE2" d="M173.714,126.911c-1.247,6.609,12.761,19.987,15.999,20.598c4.048,0.764,7.949-1.899,8.713-5.947
			c0.471-2.497-1.015-8.873-0.777-10.135c0.266-1.411,3.905-7.087,4.377-9.591c0.764-4.048-1.899-7.949-5.947-8.713
			C192.691,112.483,174.961,120.302,173.714,126.911z"/>
		
			<ellipse transform="matrix(-0.0475 -0.9989 0.9989 -0.0475 36.1837 323.0072)" fill="#FDFBE2" cx="172.106" cy="144.251" rx="5.31" ry="7.314"/>
		
			<ellipse transform="matrix(0.0988 -0.9951 0.9951 0.0988 15.7734 281.6378)" fill="#FDFBE2" cx="163.385" cy="132.11" rx="5.31" ry="7.314"/>
		
			<ellipse transform="matrix(0.3058 -0.9521 0.9521 0.3058 2.4285 240.8687)" fill="#FDFBE2" cx="166.385" cy="118.769" rx="5.31" ry="7.314"/>
		
			<ellipse transform="matrix(0.4036 -0.9149 0.9149 0.4036 5.0998 228.6246)" fill="#FDFBE2" cx="177.925" cy="110.4" rx="5.31" ry="7.314"/>
	</g>
	<g>
		<path fill="#FDFBE2" d="M287.849,106.041c-3.255,5.886,5.857,22.979,8.741,24.573c3.605,1.994,8.144,0.687,10.138-2.918
			c1.229-2.223,1.815-8.744,2.437-9.868c0.695-1.257,5.928-5.507,7.162-7.737c1.994-3.605,0.687-8.144-2.918-10.138
			C310.39,98.284,291.104,100.155,287.849,106.041z"/>
		
			<ellipse transform="matrix(0.2679 -0.9635 0.9635 0.2679 88.1048 359.9486)" fill="#FDFBE2" cx="280.889" cy="122.004" rx="5.31" ry="7.314"/>
		
			<ellipse transform="matrix(0.4056 -0.914 0.914 0.4056 65.8164 316.695)" fill="#FDFBE2" cx="276.411" cy="107.742" rx="5.31" ry="7.314"/>
		
			<ellipse transform="matrix(0.5886 -0.8084 0.8084 0.5886 38.9775 268.6236)" fill="#FDFBE2" cx="283.439" cy="96.012" rx="5.31" ry="7.314"/>
		
			<ellipse transform="matrix(0.6699 -0.7424 0.7424 0.6699 29.9688 250.7707)" fill="#FDFBE2" cx="297.02" cy="91.68" rx="5.31" ry="7.314"/>
	</g>
	<g>
		<path fill="#FDFBE2" d="M331.774,183.981c-2.049,6.406,10.209,21.404,13.347,22.408c3.924,1.255,8.122-0.908,9.378-4.832
			c0.774-2.42,0.083-8.93,0.474-10.154c0.438-1.368,4.746-6.554,5.523-8.981c1.255-3.924-0.908-8.122-4.832-9.378
			C352.379,171.994,333.823,177.575,331.774,183.981z"/>
		
			<ellipse transform="matrix(0.0756 -0.9971 0.9971 0.0756 102.8208 512.8984)" fill="#FDFBE2" cx="328.047" cy="200.992" rx="5.31" ry="7.314"/>
		
			<ellipse transform="matrix(0.2203 -0.9754 0.9754 0.2203 66.9247 459.4725)" fill="#FDFBE2" cx="320.884" cy="187.872" rx="5.31" ry="7.314"/>
		
			<ellipse transform="matrix(0.4204 -0.9073 0.9073 0.4204 29.8683 396.7598)" fill="#FDFBE2" cx="325.5" cy="175" rx="5.31" ry="7.314"/>
		
			<ellipse transform="matrix(0.513 -0.8584 0.8584 0.513 20.2932 371.9938)" fill="#FDFBE2" cx="337.981" cy="168.113" rx="5.31" ry="7.314"/>
	</g>
	<g>
		<path fill="#FDFBE2" d="M433.191,160.314c-2.05,6.406,10.209,21.404,13.347,22.408c3.924,1.255,8.122-0.908,9.378-4.832
			c0.774-2.42,0.082-8.93,0.474-10.154c0.438-1.368,4.746-6.554,5.523-8.981c1.255-3.924-0.908-8.122-4.832-9.378
			C453.797,148.326,435.241,153.907,433.191,160.314z"/>
		
			<ellipse transform="matrix(0.0756 -0.9971 0.9971 0.0756 220.1683 592.1481)" fill="#FDFBE2" cx="429.465" cy="177.324" rx="5.31" ry="7.314"/>
		
			<ellipse transform="matrix(0.2203 -0.9754 0.9754 0.2203 169.0814 539.9451)" fill="#FDFBE2" cx="422.302" cy="164.204" rx="5.31" ry="7.314"/>
		
			<ellipse transform="matrix(0.4204 -0.9073 0.9073 0.4204 110.1214 475.0617)" fill="#FDFBE2" cx="426.918" cy="151.333" rx="5.31" ry="7.314"/>
		
			<ellipse transform="matrix(0.513 -0.8584 0.8584 0.513 90.0008 447.524)" fill="#FDFBE2" cx="439.399" cy="144.445" rx="5.31" ry="7.314"/>
	</g>
	<g>
		<path fill="#FDFBE2" d="M494.876,231.242c-1.439,6.57,12.172,20.351,15.391,21.056c4.024,0.882,8.001-1.666,8.883-5.69
			c0.544-2.482-0.756-8.899-0.481-10.154c0.307-1.403,4.11-6.97,4.655-9.46c0.882-4.024-1.666-8.001-5.69-8.883
			C514.266,217.374,496.316,224.672,494.876,231.242z"/>
		
			<ellipse transform="matrix(-0.0183 -0.9998 0.9998 -0.0183 253.2776 745.7479)" fill="#FDFBE2" cx="492.762" cy="248.528" rx="5.31" ry="7.314"/>
		
			<ellipse transform="matrix(0.1278 -0.9918 0.9918 0.1278 188.2709 686.3729)" fill="#FDFBE2" cx="484.4" cy="236.138" rx="5.31" ry="7.314"/>
		
			<ellipse transform="matrix(0.3334 -0.9428 0.9428 0.3334 115.0067 608.4428)" fill="#FDFBE2" cx="487.788" cy="222.89" rx="5.31" ry="7.314"/>
		
			<ellipse transform="matrix(0.4302 -0.9027 0.9027 0.4302 90.6981 573.4128)" fill="#FDFBE2" cx="499.567" cy="214.862" rx="5.31" ry="7.314"/>
	</g>
	<g>
		<path fill="#FDFBE2" d="M586.574,192.902c-0.5,6.707,14.917,18.434,18.203,18.679c4.108,0.306,7.687-2.776,7.993-6.885
			c0.189-2.534-2.002-8.703-1.906-9.985c0.107-1.432,3.087-7.479,3.277-10.021c0.306-4.108-2.776-7.687-6.885-7.993
			C603.817,176.441,587.074,186.195,586.574,192.902z"/>
		
			<ellipse transform="matrix(-0.1589 -0.9873 0.9873 -0.1589 472.5489 823.1931)" fill="#FDFBE2" cx="586.916" cy="210.313" rx="5.31" ry="7.314"/>
		
			<ellipse transform="matrix(-0.0131 -0.9999 0.9999 -0.0131 385.2593 778.6821)" fill="#FDFBE2" cx="576.892" cy="199.224" rx="5.31" ry="7.314"/>
		
			<ellipse transform="matrix(0.1973 -0.9803 0.9803 0.1973 282.2747 716.0124)" fill="#FDFBE2" cx="578.38" cy="185.631" rx="5.31" ry="7.314"/>
		
			<ellipse transform="matrix(0.2987 -0.9543 0.9543 0.2987 244.9977 685.4592)" fill="#FDFBE2" cx="588.911" cy="176.024" rx="5.31" ry="7.314"/>
	</g>
</g>
</svg>
