<?xml version="1.0" encoding="utf-8"?>
<!-- Generator: Adobe Illustrator 17.0.0, SVG Export Plug-In . SVG Version: 6.00 Build 0)  -->
<!DOCTYPE svg PUBLIC "-//W3C//DTD SVG 1.1//EN" "http://www.w3.org/Graphics/SVG/1.1/DTD/svg11.dtd">
<svg version="1.1" id="Layer_1" xmlns="http://www.w3.org/2000/svg" xmlns:xlink="http://www.w3.org/1999/xlink" x="0px" y="0px"
	 width="226.876px" height="363.162px" viewBox="0 0 226.876 363.162" enable-background="new 0 0 226.876 363.162"
	 xml:space="preserve">
<g>
	<path fill="#B6977E" d="M77.462,219.407c0,0,9.501,31.567,19.001,36.164c0,0,5.7,9.132,0,36.952c0,0-2.817,6.198-3.249,10.955
		c0,0-10.978,9.802-4.985,11.676c0,0,0.228,4.18,4.84,1.153c0,0,1.874,3.46,5.189-0.721c0,0,3.46,3.027,6.631-1.153
		c0,0,4.036,0.288,4.036-10.523c0,0-0.577-2.451,0-3.748c0,0,1.874-1.123,0-6.327c0,0-1.938-17.299,0.833-25.306
		c0,0,2.274-5.845,0-10.169c0,0-3.86-15.568-0.545-24.361C109.214,233.999,88.377,213.463,77.462,219.407z"/>
	<path fill="#B6977E" d="M126.749,227.884c0,0,10.732,23.007,8.638,41.081c0,0-3.731,3.619-1.637,19.847
		c0,0,0.861,18.119-2.546,32.253c0,0-3.136,5.497,0,6.544c0,0,3.136,5.758,6.277,2.356c0,0,5.235,4.711,8.376-1.047
		c0,0,4.45,4.188,4.45-0.785c0,0,7.067,0.523,2.094-7.591c0,0-6.544-8.274-7.067-25.731c0,0-0.154-7.597,0.21-14.044
		c0,0,0.608-18.977,1.216-20.923c0,0,10.705-18.734,5.717-30.534L126.749,227.884z"/>
	<path fill="#FDFBE2" d="M56.113,201.737c0,0-6.195-1.126-11.263,4.318c0,0,4.693-2.065,7.321-1.314c0,0-10.453,9.158-9.024,18.637
		c0,0,2.337-11.427,9.219-14.543c0,0-2.488,7.307-5.454,9.479c0,0,3.506-2.337,5.584-4.155c0,0-2.384,4.508-5.376,7.874
		c0,0,2.244-0.748,4.115-2.057c0,0-5.237,5.798-5.985,9.913c0,0,2.204-5.424,4.375-5.611c0,0-3.565,44.242,4.56,68.931
		c0,0,1.357,7.188,1.929,15.314c0,0,1.079,14.56,0,24.482c0,0-4.442,5.55-4.947,11.1c0,0-7.904,6.895-3.027,10.763
		c0,0-0.841,7.232,4.709,4.373c0,0,5.213,7.232,9.754,1.85c0,0,6.727,5.886,9.25-2.186s0-0.673,0-0.673s11.772,0.505,5.045-13.454
		c0,0-3.027-16.818-1.177-28.254c0,0,5.045-18.499-0.673-19.172c0,0-2.859-6.391-1.009-21.359c0,0,3.868-10.595,3.195-32.626
		c0,0,13.286-9.418,13.622-20.518C91.192,211.749,60.051,199.63,56.113,201.737z"/>
	<path fill="#FDFBE2" d="M141.54,227.699c0,0,5.367,7.917,11.366,12.179c0,0,0.631,38.365,5.051,52.371c0,0,0.947,2.74-1.894,7.003
		c0,0-2.538,10.961,2.046,15.833c0,0,4.9,14.615,2.69,28.926c0,0-5.999,15.833,3.789,13.397c0,0,3.157,7.612,8.209,2.131
		c0,0,10.103,6.394,12.313,0c0,0,5.051,2.131,5.683-3.349c0,0,6.63-5.176-2.841-9.135c0,0-0.847-5.785-7.527-13.093
		c0,0-3.207-6.699-3.523-15.529c0,0,3.157-12.484-2.21-18.574c0,0-1.263-18.878,1.579-29.535c0,0,9.648-34.203,0.631-49.022
		c0,0,4.888,2.105,5.917,4.885c0,0-0.618-3.971-4.323-7.346c0,0,4.52,2.556,8.292,1.215c0,0,2.581-0.191,3.971,1.149
		c0,0-1.821-3.297-5.957-2.364c0,0-5.957-1.274-6.354-2.998c0,0,6.95,2.107,8.737,0c0,0-7.149-0.383-8.34-2.681
		c0,0,9.712-1.771,14.204,1.294c0,0-7.179-3.984-12.625-4.904c0,0,13.535-1.468,12.625-4.565c0,0-8.132,0.951-12.625,0
		c0,0,1.863-1.871,5.995-2.79c0,0-6.747-0.72-9.805-1.678c-3.059-0.958-2.429-2.153-6.719-2
		C169.893,198.521,139.244,215.196,141.54,227.699z"/>
	<path fill="#009444" d="M180.134,160.68c7.328-26.328-11.4-23.209-11.4-23.209l-101.14-0.549l-3.777-2.656
		c-20.337,11.872-14.374,39.384-14.374,39.384c2.337,2.454,0,11.803,0,11.803c-6.544,21.153,15.543,26.996,15.543,26.996
		c13.323,2.805,13.79,7.129,13.79,7.129c5.259,18.231,16.478,13.556,16.478,13.556c4.299,3.583,8.297-0.136,8.297-0.136
		c16.244,5.941,33.891,0,33.891,0c4.558-4.343,8.414-2.085,8.414-2.085c10.518,7.129,16.244-6.311,16.244-6.311
		c0.818-4.207,4.324-8.064,4.324-8.064c6.778-3.272,6.327-8.532,6.327-8.532c0.981-5.741,4.401-7.535,4.401-7.535
		c2.691,1.256,4.681-5.05,4.681-5.05C191.678,183.479,180.134,160.68,180.134,160.68z"/>
	<path fill="#8B5E3C" d="M69.77,62.769c0,0-9.031-7.338-16.087-6.491c0,0-3.458,0-6.422-1.647c0,0-18.277-5.693-30.79,4.069
		c0,0-1.482,0.871-4.775,1.035c0,0-27.991,6.092,2.634,23.216c0,0,12.255,3.787,21.111,1.811c0,0,14.125-1.163,23.51,0.571
		C58.951,85.334,77.954,79.139,69.77,62.769z"/>
	<path fill="#603913" d="M67.769,71.449c0,0-24.329-19.819-47.828-1.914c0,0,10.807,0.811,13.335,3.09
		c0,0,23.703,12.614,35.713,4.559L67.769,71.449z"/>
	<path fill="#FDFBE2" d="M34.925,104.577c-0.304,0.183-0.592,0.379-0.837,0.602C34.088,105.179,34.399,104.94,34.925,104.577z"/>
	<path fill="#FDFBE2" d="M185.184,151.337c-1.285-13.219-14.688-13.953-14.688-13.953c0.918-4.223,0.925-8.022,0.925-8.022
		c2.563-0.769,8.715,2.051,8.715,2.051c-2.82-3.204-8.64-5.591-8.64-5.591c8.299,3.347,14.725,0.937,14.725,0.937
		c-7.63,0.669-14.993-4.685-14.993-4.685c4.417,2.008,11.378,2.41,11.378,2.41c4.15-1.205,12.851,0.803,12.851,0.803
		c-3.347-2.409-11.378-2.945-11.378-2.945c-5.89,0.402-13.252-3.614-13.252-3.614c8.567,3.748,16.465,0,16.465,0
		c1.339-1.472,3.829-1.892,3.829-1.892c-3.14-1.427-5.994,0.571-5.994,0.571c-5.138,2.569-14.558-3.14-14.558-3.14
		c9.134,3.14,10.158,0,10.158,0c-7.825-0.285-10.444-9.705-10.444-9.705l-0.775-42.286c-3.57-14.661,11.219-16.191,11.219-16.191
		c-3.952-4.844-12.931-4.467-12.931-4.467c0.977-0.178,1.913-0.446,2.803-0.778c3.878-1.446,6.859-4.086,8.325-5.571
		c-3.019,2.267-9.996,2.144-9.996,2.144c4.367-1.132,5.176-4.253,5.176-4.253c-2.912,2.217-6.794,1.018-6.794,1.018
		c3.073-3.72,7.764-4.367,7.764-4.367c2.75-0.323,4.853-1.941,4.853-1.941c-1.132,0.647-6.147-0.485-6.147-0.485
		c-5.014-0.647-8.983,2.414-8.983,2.414c4.895-5.076,5.62-13.234,5.62-13.234c-0.906,7.433-12.085,11.812-12.085,11.812
		c2.123-2.308,3.323-7.201,3.323-7.201c-1.754,5.354-7.847,6.739-7.847,6.739c2.677-1.108,3.97-6.739,3.97-6.739
		c0.092-3.508,3.508-4.8,3.508-4.8c-3.139-0.554-4.247,1.939-4.247,1.939c-3.046,6.37-13.94,9.232-13.94,9.232
		c0.739-2.216,6.093-4.431,6.093-4.431c3.6-1.939,5.724-6.001,5.724-6.001c0.554-3.6,4.154-7.201,4.154-7.201
		c-4.339,2.308-6.739,7.385-6.739,7.385c-3.231,2.954-8.401,4.431-8.401,4.431c-5.458,1.559-8.45,3.97-9.884,5.471
		c1.408-2.017,3.33-5.379,3.33-5.379c2.493-5.17,11.078-6.277,11.078-6.277c-8.216-2.585-12.832,3.046-12.832,3.046
		c-1.846,3.6-9.36,8.761-9.36,8.761c2.65-13.469,15.015-20.314,15.015-20.314c-5.741-1.325-15.015,9.053-15.015,9.053
		c8.611-15.015,21.198-15.778,21.198-15.778c-16.34-3.192-27.822,19.09-27.822,19.09c-1.766,4.195-7.949,11.482-7.949,11.482
		c0-15.015,16.34-26.939,16.34-26.939c-9.053,0.883-17.885,15.236-17.885,15.236c-0.883-4.416,2.871-9.716,2.871-9.716
		c-3.533,0.883-9.053,14.573-9.053,14.573c0.221-8.612,10.141-21.337,10.141-21.337c-7.965,2.731-18.889,26.854-18.889,26.854
		c-0.91-6.941,4.893-16.386,4.893-16.386c3.755-4.096,6.372-12.858,6.372-12.858c-1.593,3.755-6.941,9.103-6.941,9.103
		c-8.534,5.917-11.668,21.922-11.668,21.922c-4.436-6.495,2.535-17.109,2.535-17.109c-9.03,5.703-4.911,19.96-4.911,19.96
		c2.535,4.277,1.426,13.94,1.426,13.94c-4.277-3.168-6.337-9.663-6.337-9.663c0-5.386-1.901-10.772-1.901-10.772
		c-1.267-3.168-1.743-7.129-1.743-7.129c0.317-11.564-6.337-12.198-6.337-12.198c3.96,2.059,3.643,6.653,3.643,6.653
		c-1.109,3.01,0.158,9.505,0.158,9.505c3.96,8.713-1.584,17.584-1.584,17.584c-0.951-2.535-2.059-4.436-2.059-4.436
		c-2.851-5.069,1.109-10.455,1.109-10.455c-5.069,0.951-3.96,7.445-3.96,7.445c-4.436-6.653,0.674-15.435,0.674-15.435
		c-10.554,8.118-4.871,22.326-4.871,22.326c4.871,14.613,0,13.395,0,13.395c-10.148-1.624-4.465-18.672-4.465-18.672
		c-14.613,13.395-3.653,30.038-3.653,30.038c4.466,6.818,5.711,13.064,5.711,13.064c-1.183-2.13-8.994-3.077-8.994-3.077
		c4.734,0.473,7.574,5.444,7.574,5.444c-1.42-0.947-4.97-2.13-4.97-2.13c-2.13-1.183-11.834,0.473-11.834,0.473
		c3.314,0,8.284,1.42,8.284,1.42c1.893,2.367,6.39,4.734,6.39,4.734c-5.444-0.947-17.041,0.237-17.041,0.237
		c8.521,0.473,16.331,4.734,16.331,4.734c-4.97,1.657-12.781-1.42-12.781-1.42c3.314,2.84,11.361,4.97,11.361,4.97
		c-5.207-0.473-15.148,4.024-15.148,4.024c7.337-2.13,15.621-0.71,15.621-0.71c-2.13,2.604-9.704,2.13-9.704,2.13
		c-4.641,0-9.559,3.049-11.47,4.368c2.923-1.758,8.157-1.765,8.157-1.765c10.887,0.71,15.148-2.604,15.148-2.604
		c-2.604,3.314-0.947,5.917-0.947,5.917c3.077-4.26,3.787-2.146,3.787-2.146l2.13,12.086c-0.473,2.367-4.26,3.077-4.26,3.077
		c2.367,0.473,3.544,1.013,3.544,1.013c-2.136,2.67-7.903,2.456-7.903,2.456c1.922,2.136,6.733,2.159,6.733,2.159
		c-2.019,1.835-4.221,1.835-4.221,1.835c5.873,1.285,9.989-1.787,9.989-1.787s1.215,4.161-3.273,4.161c0,0,0.267,1.033,1.712,1.363
		c0,0-19.562,19.765,0,33.929c0,0,0.167,3.294,1.712,5.271c0,0-0.703-2.498,0-3.72c0,0,1.161,3.665,0.779,5.116
		c0,0,0.611-2.214,0.611-3.054c0,0,1.374,2.138,0.764,3.971c0,0,0.993-2.367,0.84-3.283c0,0,0.875,2.29,0.622,3.283
		c0,0-1.047,1.753,0.046,2.891c0,0-0.071-1.53,0.34-1.941c0,0,0.548-1.232,0.479-2.327c0,0,0.753,2.122,0.342,3.217
		c0,0,0.821-1.3,0.89-1.848c0,0,0.684,2.601,0,3.901c0,0,1.027-1.506,1.027-2.532c0,0,0.684,1.506,0.342,2.532
		c0,0-0.137,1.848,0.616,2.396c0,0-0.137-1.164,0-1.711c0,0,0.548-1.3,0.411-2.122c0,0,0.685,1.643,0.685,2.669
		c0,0,0.479-1.027,0.479-1.848c0,0,0.616,1.985,0.274,3.012c0,0,0.958-1.369,0.958-2.053c0,0,0.616,1.848,0.548,3.148
		c0,0-0.137,0.411,0.411,1.232c0,0,0.068-0.821,0.342-1.643c0,0,0.411-0.753,0-1.78c0,0,0.826,1.472,0.652,2.555
		c0,0,0.39-1.083,0.346-1.992c0,0,0.52,0.909,0.909,1.169c0,0-0.26-1.256,0-1.862c0,0,0.654,1.38,0.358,2.606
		c0,0,0.549-1.268,0.549-2.198c0,0,0.085,1.564,0.465,1.944c0,0,0.211,0.93,0,1.437c0,0,0.592-1.437,0.507-2.029
		c0,0-0.153-0.338,0.008-1.057c0,0,0.535,0.853,0.463,1.92c0,0,0.474-1.352,0.332-1.779c0,0,0.522,1.447,0.19,2.468
		c0,0,0.688-1.139,0.593-2.017c0,0,0.38,0.664,0.285,1.613c0,0-0.047,0.55,0.261,0.88c0,0-0.095-0.785,0.119-1.212
		c0,0,0.047-0.308,0-0.83c0,0,0.403,0.546,0.332,1.139c0,0,0.427-0.451,0.403-1.21c0,0,0.474,0.569,0.142,1.708
		c0,0,0.641-0.925,0.641-1.447c0,0,0.047,0.664,0.308,0.902c0,0,0.19,0.408,0.166,0.951c0,0,0.218-0.69,0.002-1.331
		c0,0-0.026-0.427,0.259-0.712c0,0,0.214,0.522,0.19,0.783c0,0,0.38-0.451,0.38-0.997v0.546c0,0,0.764,0.017,1.642-0.112
		c-0.493,1.847-3.101,4.46-3.101,4.46c3.871-0.456,6.377-1.822,6.377-1.822c-1.594,3.188-1.594,6.604-1.594,6.604
		c0-3.644,4.327-4.327,4.327-4.327c-1.822,7.06-0.228,10.248-0.228,10.248c0-3.188,1.594-4.298,1.594-4.298
		c4.782,3.673,3.644,11.813,3.644,11.813c4.327-7.515,0-14.575,0-14.575c6.604,4.555,7.06,11.842,7.06,11.842
		c0.911-4.327,4.197-4.073,4.197-4.073c-1.259,5.161,1.518,8.042,1.518,8.042c-1.502-4.089,2.548-8.987,2.548-8.987
		c1.654,2.021-0.735,5.144-0.735,5.144c3.356-1.51,4.257-5.003,4.389-5.599c-1.225,4.769,1.49,11.294,1.49,11.294
		c-2.205-6.614,4.409-11.207,4.409-11.207c-4.593,7.533,3.123,14.514,3.123,14.514c-3.307-4.409,0.367-9.737,0.367-9.737
		c3.123-3.491,5.144-10.472,5.144-10.472c1.286,0,2.388,5.695,2.388,5.695c1.47-2.388,0.735-7.9,0.735-7.9
		c2.26,0.532,4.422,6.927,5.446,10.425c-0.858-6.02,3.74-13.364,3.74-13.364c0.551,8.268,4.042,10.472,4.042,10.472
		s4.777,4.777,0.919,0s-0.919-14.514-0.919-14.514c0.367,7.165,3.858,7.9,3.858,7.9c-2.572-4.409,0.367-8.451,0.367-8.451
		c4.042-2.388,10.122-11.928,10.122-11.928c3.004,2.219,5.707,1.685,5.707,1.685c-2.853-0.15-4.355-4.205-4.355-4.205l1.072-1.948
		c2.203,0.184,7.16,4.468,7.16,4.468c-1.652-4.712-5.875-7.222-5.875-7.222c4.039,0.551,11.75,7.222,11.75,7.222
		c-1.285-6.181-11.383-9.792-11.383-9.792c2.02-3.305,0.551-7.711,0.551-7.711c3.672-1.102,8.078,2.02,8.078,2.02
		c-2.02-4.957-7.344-5.875-7.344-5.875c0-0.551,0.367-4.039,0.367-4.039c8.629,0.184,11.567,9.18,11.567,9.18
		c1.836,6.059,9.18,6.426,9.18,6.426C187.571,155.927,185.184,151.337,185.184,151.337z"/>
	<path fill="#FDFBE2" d="M142.637,195.971c0.111,0.778,0.302,1.537,0.617,2.252C143.254,198.224,143.029,197.308,142.637,195.971z"
		/>
	<path fill="#FDFBE2" d="M179.929,34.177c0,0-0.355,0.433-1.004,1.091C179.346,34.952,179.692,34.592,179.929,34.177z"/>
	<path fill="#8B5E3C" d="M175.283,53.835c0,0-5.021,3.283-10.427,3.476c0,0-18.345,1.352-20.469,12.938
		c0,0-1.545,12.552,12.552,12.938c0,0,5.687,1.704,5.783,6.941c0,0-6.246,15.072,9.82,13.721c0,0,7.376-1.931,12.01-8.496
		c4.634-6.565,8.741-6.362,10.672-6.565c1.931-0.203,6.342-2.714,7.041-3.297c0,0,3.962-2.564,7.342-2.447
		c0,0,5.71-0.932,14.334-14.334c0,0,8.857-6.905-4.195-14.873c0,0-9.323-3.306-20.976-1.558c0,0-1.632-0.35-2.447-1.282
		C196.322,50.994,180.582,48.517,175.283,53.835z"/>
	<path fill="#603913" d="M164.068,76.704c0,0,4.257-12.817,27.318-10.334c0,0,8.515,1.49,16.674-0.319
		c0,0-16.926,23.089-36.203,16.34c0,0-4.691-1.088-9.698,0L164.068,76.704z"/>
	<path fill="#8B5E3C" d="M68.166,155.381c0,0,1.761,20.685,31.846,8.224C100.012,163.605,70.16,180.054,68.166,155.381z"/>
	<path fill="#8B5E3C" d="M68.886,153.304c0,0,0.966,12.095-4.928,11.313C63.958,164.617,67.95,164.142,68.886,153.304z"/>
	<path fill="#E08C78" d="M67.944,138.468c0,0,9.864-1.77,12.14,4.553c0,0,1.138,7.461-5.058,7.588c0,0,1.644,10.37-6.576,7.714
		c0,0-6.323,1.012-7.84-8.979c0,0-4.553-3.667-0.759-9.232C59.851,140.112,61.621,137.33,67.944,138.468z"/>
	<path fill="#8B5E3C" d="M74.772,150.613c0,0-1.128-1.116-1.692-2.639c0,0-1.066-2.411-2.51-1.929
		c-0.115,0.038-0.225,0.11-0.339,0.198c-0.058,0.045-0.118,0.094-0.179,0.145C70.052,146.388,68.524,148.514,74.772,150.613z"/>
	<path fill="#8B5E3C" d="M60.821,148.984c0,0,0.907-0.897,1.36-2.122c0,0,0.857-1.938,2.018-1.551
		c0.092,0.031,0.181,0.088,0.273,0.159c0.047,0.036,0.094,0.076,0.144,0.117C64.615,145.588,65.843,147.297,60.821,148.984z"/>
	<path fill="#8B5E3C" d="M68.837,158.159c0,0-1.732-2.432-0.424-8.365C68.413,149.794,68.791,157.392,68.837,158.159z"/>
	<circle fill="#603913" cx="64.68" cy="110.661" r="7.734"/>
	<circle cx="64.916" cy="110.662" r="4.262"/>
	<path fill="#FFFFFF" d="M67.807,105.145c0,0-0.206,3.277-2.064,5.135c0,0,1.896-0.615,3.724-3.518L67.807,105.145z"/>
	<circle fill="#603913" cx="117.456" cy="114.575" r="7.734"/>
	<circle cx="117.692" cy="114.576" r="4.262"/>
	<path fill="#FFFFFF" d="M120.583,109.059c0,0-0.206,3.277-2.064,5.135c0,0,1.896-0.615,3.724-3.518L120.583,109.059z"/>
	<path fill="#8B5E3C" d="M88.897,179.282c0,0,16.765-5.605,19.084-13.95C107.981,165.332,106.911,176.785,88.897,179.282z"/>
	<path fill="#8B5E3C" d="M111.076,163.673c0,0,50.793,4.345,55.111-39.594C166.187,124.079,167.792,169.024,111.076,163.673z"/>
	<path fill="#FFFFFF" d="M73.485,142.107c0,0,4.533,0.33,5.642,3.18c0,0-0.317-3.167-4.276-4.909
		C74.851,140.378,73.702,140.986,73.485,142.107z"/>
</g>
</svg>
